# xmcd
#
# Track frame offsets: 
#        150
#        17206
#        36265
#        55594
#        69337
#        79879
#        96548
#        112704
#        127141
#
# Disc length: 1811 seconds
#
# Revision: 0
# Processed by: cddbd v1.5.2PL0 Copyright (c) Steve Scherf et al.
# Submitted via: ExactAudioCopy v0.99pb4
#
DISCID=74071109
DTITLE=Brent Hopper and Brittany Reilly - Back to My Roots
DYEAR=2006
DGENRE=Country
TTITLE0=Another Fight
TTITLE1=Rainbow Rebel
TTITLE2=I'll Be With Thee
TTITLE3=Children
TTITLE4=Dear Old Dixie
TTITLE5=Unification
TTITLE6=Ash Grove
TTITLE7=Zion
TTITLE8=Back to My Roots
EXTD=Brent Hopper - Guitar, Mandolin, Vocals\nBrittany Reilly - Mandol
EXTD=in, Vocals\n\nMixed, Produced, and Recorded by Corey Dwyer at Dre
EXTD=am Factory Studios Studio 14 - 1499 SW 30th Ave. Delray Beach, FL
EXTD=\nwww.brenthopper.com
EXTT0=
EXTT1=
EXTT2=
EXTT3=
EXTT4=
EXTT5=
EXTT6=
EXTT7=
EXTT8=
PLAYORDER=
